[
  {
    "frame": 234,
    "pts": 234234.0,
    "pts_time": 7.8078,
    "score": 0.495086
  },
  {
    "frame": 411,
    "pts": 411411.0,
    "pts_time": 13.7137,
    "score": 0.615713
  },
  {
    "frame": 678,
    "pts": 678678.0,
    "pts_time": 22.6226,
    "score": 0.730799
  },
  {
    "frame": 922,
    "pts": 922922.0,
    "pts_time": 30.7641,
    "score": 0.510451
  },
  {
    "frame": 1100,
    "pts": 1101100.0,
    "pts_time": 36.7033,
    "score": 0.336381
  },
  {
    "frame": 1316,
    "pts": 1317316.0,
    "pts_time": 43.9105,
    "score": 0.513978
  },
  {
    "frame": 1553,
    "pts": 1554553.0,
    "pts_time": 51.8184,
    "score": 0.454775
  },
  {
    "frame": 1791,
    "pts": 1792791.0,
    "pts_time": 59.7597,
    "score": 0.670901
  },
  {
    "frame": 1974,
    "pts": 1975974.0,
    "pts_time": 65.8658,
    "score": 0.636491
  },
  {
    "frame": 2191,
    "pts": 2193191.0,
    "pts_time": 73.1064,
    "score": 0.334734
  },
  {
    "frame": 2435,
    "pts": 2437435.0,
    "pts_time": 81.2478,
    "score": 0.368598
  },
  {
    "frame": 2440,
    "pts": 2442440.0,
    "pts_time": 81.4147,
    "score": 0.259385
  },
  {
    "frame": 2441,
    "pts": 2443441.0,
    "pts_time": 81.448,
    "score": 0.256052
  },
  {
    "frame": 2444,
    "pts": 2446444.0,
    "pts_time": 81.5481,
    "score": 0.298598
  },
  {
    "frame": 2473,
    "pts": 2475473.0,
    "pts_time": 82.5158,
    "score": 0.201991
  },
  {
    "frame": 2492,
    "pts": 2494492.0,
    "pts_time": 83.1497,
    "score": 0.326716
  },
  {
    "frame": 2494,
    "pts": 2496494.0,
    "pts_time": 83.2165,
    "score": 0.266922
  },
  {
    "frame": 2495,
    "pts": 2497495.0,
    "pts_time": 83.2498,
    "score": 0.208111
  },
  {
    "frame": 2509,
    "pts": 2511509.0,
    "pts_time": 83.717,
    "score": 0.248954
  },
  {
    "frame": 2510,
    "pts": 2512510.0,
    "pts_time": 83.7503,
    "score": 0.398495
  },
  {
    "frame": 2511,
    "pts": 2513511.0,
    "pts_time": 83.7837,
    "score": 0.275038
  },
  {
    "frame": 2513,
    "pts": 2515513.0,
    "pts_time": 83.8504,
    "score": 0.279126
  },
  {
    "frame": 2521,
    "pts": 2523521.0,
    "pts_time": 84.1174,
    "score": 0.208801
  },
  {
    "frame": 2524,
    "pts": 2526524.0,
    "pts_time": 84.2175,
    "score": 0.305448
  },
  {
    "frame": 2604,
    "pts": 2606604.0,
    "pts_time": 86.8868,
    "score": 0.532526
  },
  {
    "frame": 2764,
    "pts": 2766764.0,
    "pts_time": 92.2255,
    "score": 0.606496
  },
  {
    "frame": 2765,
    "pts": 2767765.0,
    "pts_time": 92.2588,
    "score": 0.249575
  },
  {
    "frame": 2766,
    "pts": 2768766.0,
    "pts_time": 92.2922,
    "score": 0.344059
  },
  {
    "frame": 2768,
    "pts": 2770768.0,
    "pts_time": 92.3589,
    "score": 0.237301
  },
  {
    "frame": 2769,
    "pts": 2771769.0,
    "pts_time": 92.3923,
    "score": 0.500531
  },
  {
    "frame": 2779,
    "pts": 2781779.0,
    "pts_time": 92.726,
    "score": 0.324642
  },
  {
    "frame": 2780,
    "pts": 2782780.0,
    "pts_time": 92.7593,
    "score": 0.350261
  },
  {
    "frame": 2781,
    "pts": 2783781.0,
    "pts_time": 92.7927,
    "score": 0.236442
  },
  {
    "frame": 2782,
    "pts": 2784782.0,
    "pts_time": 92.8261,
    "score": 0.436032
  },
  {
    "frame": 2783,
    "pts": 2785783.0,
    "pts_time": 92.8594,
    "score": 0.669239
  },
  {
    "frame": 2785,
    "pts": 2787785.0,
    "pts_time": 92.9262,
    "score": 0.251544
  },
  {
    "frame": 2788,
    "pts": 2790788.0,
    "pts_time": 93.0263,
    "score": 1.0
  },
  {
    "frame": 2789,
    "pts": 2791789.0,
    "pts_time": 93.0596,
    "score": 0.530215
  },
  {
    "frame": 2791,
    "pts": 2793791.0,
    "pts_time": 93.1264,
    "score": 0.253794
  },
  {
    "frame": 2795,
    "pts": 2797795.0,
    "pts_time": 93.2598,
    "score": 0.435198
  },
  {
    "frame": 2796,
    "pts": 2798796.0,
    "pts_time": 93.2932,
    "score": 0.760877
  },
  {
    "frame": 2797,
    "pts": 2799797.0,
    "pts_time": 93.3266,
    "score": 0.245935
  },
  {
    "frame": 2798,
    "pts": 2800798.0,
    "pts_time": 93.3599,
    "score": 0.452024
  },
  {
    "frame": 2800,
    "pts": 2802800.0,
    "pts_time": 93.4267,
    "score": 0.986307
  },
  {
    "frame": 3018,
    "pts": 3021018.0,
    "pts_time": 100.701,
    "score": 0.282263
  },
  {
    "frame": 3304,
    "pts": 3307304.0,
    "pts_time": 110.243,
    "score": 0.351168
  },
  {
    "frame": 3307,
    "pts": 3310307.0,
    "pts_time": 110.344,
    "score": 0.224071
  },
  {
    "frame": 3580,
    "pts": 3583580.0,
    "pts_time": 119.453,
    "score": 0.383847
  },
  {
    "frame": 3776,
    "pts": 3779776.0,
    "pts_time": 125.993,
    "score": 0.523003
  },
  {
    "frame": 3927,
    "pts": 3930927.0,
    "pts_time": 131.031,
    "score": 0.929104
  },
  {
    "frame": 4291,
    "pts": 4295291.0,
    "pts_time": 143.176,
    "score": 0.429609
  },
  {
    "frame": 4361,
    "pts": 4365361.0,
    "pts_time": 145.512,
    "score": 0.250992
  },
  {
    "frame": 4533,
    "pts": 4537533.0,
    "pts_time": 151.251,
    "score": 0.218192
  },
  {
    "frame": 4547,
    "pts": 4551547.0,
    "pts_time": 151.718,
    "score": 0.366276
  },
  {
    "frame": 4834,
    "pts": 4838834.0,
    "pts_time": 161.294,
    "score": 0.561481
  },
  {
    "frame": 5192,
    "pts": 5197192.0,
    "pts_time": 173.24,
    "score": 0.426327
  },
  {
    "frame": 5357,
    "pts": 5362357.0,
    "pts_time": 178.745,
    "score": 0.28125
  },
  {
    "frame": 5812,
    "pts": 5817812.0,
    "pts_time": 193.927,
    "score": 0.335737
  },
  {
    "frame": 6024,
    "pts": 6030024.0,
    "pts_time": 201.001,
    "score": 0.392017
  },
  {
    "frame": 6228,
    "pts": 6234228.0,
    "pts_time": 207.808,
    "score": 0.431502
  },
  {
    "frame": 6639,
    "pts": 6645639.0,
    "pts_time": 221.521,
    "score": 0.421244
  },
  {
    "frame": 6907,
    "pts": 6913907.0,
    "pts_time": 230.464,
    "score": 0.214592
  },
  {
    "frame": 6930,
    "pts": 6936930.0,
    "pts_time": 231.231,
    "score": 0.340498
  },
  {
    "frame": 6977,
    "pts": 6983977.0,
    "pts_time": 232.799,
    "score": 0.274134
  },
  {
    "frame": 7110,
    "pts": 7117110.0,
    "pts_time": 237.237,
    "score": 0.809796
  },
  {
    "frame": 7401,
    "pts": 7408401.0,
    "pts_time": 246.947,
    "score": 0.202264
  },
  {
    "frame": 7548,
    "pts": 7555548.0,
    "pts_time": 251.852,
    "score": 0.517925
  },
  {
    "frame": 7827,
    "pts": 7834827.0,
    "pts_time": 261.161,
    "score": 0.445266
  },
  {
    "frame": 8206,
    "pts": 8214206.0,
    "pts_time": 273.807,
    "score": 0.62705
  },
  {
    "frame": 8442,
    "pts": 8450442.0,
    "pts_time": 281.681,
    "score": 0.778878
  },
  {
    "frame": 8696,
    "pts": 8704696.0,
    "pts_time": 290.157,
    "score": 0.427321
  },
  {
    "frame": 8948,
    "pts": 8956948.0,
    "pts_time": 298.565,
    "score": 0.360181
  },
  {
    "frame": 9183,
    "pts": 9192183.0,
    "pts_time": 306.406,
    "score": 0.474438
  },
  {
    "frame": 9405,
    "pts": 9414405.0,
    "pts_time": 313.814,
    "score": 0.886927
  },
  {
    "frame": 9670,
    "pts": 9679670.0,
    "pts_time": 322.656,
    "score": 0.274457
  },
  {
    "frame": 9671,
    "pts": 9680671.0,
    "pts_time": 322.689,
    "score": 0.200322
  },
  {
    "frame": 9673,
    "pts": 9682673.0,
    "pts_time": 322.756,
    "score": 0.208255
  },
  {
    "frame": 9676,
    "pts": 9685676.0,
    "pts_time": 322.856,
    "score": 0.230262
  },
  {
    "frame": 9699,
    "pts": 9708699.0,
    "pts_time": 323.623,
    "score": 0.227942
  },
  {
    "frame": 9848,
    "pts": 9857848.0,
    "pts_time": 328.595,
    "score": 1.0
  },
  {
    "frame": 9951,
    "pts": 9960951.0,
    "pts_time": 332.032,
    "score": 0.33635
  },
  {
    "frame": 10092,
    "pts": 10102092.0,
    "pts_time": 336.736,
    "score": 0.407162
  },
  {
    "frame": 10298,
    "pts": 10308298.0,
    "pts_time": 343.61,
    "score": 0.512491
  },
  {
    "frame": 10583,
    "pts": 10593583.0,
    "pts_time": 353.119,
    "score": 0.786605
  },
  {
    "frame": 10803,
    "pts": 10813803.0,
    "pts_time": 360.46,
    "score": 0.725038
  },
  {
    "frame": 10938,
    "pts": 10948938.0,
    "pts_time": 364.965,
    "score": 0.351156
  },
  {
    "frame": 11056,
    "pts": 11067056.0,
    "pts_time": 368.902,
    "score": 0.503859
  },
  {
    "frame": 11420,
    "pts": 11431420.0,
    "pts_time": 381.047,
    "score": 0.815693
  },
  {
    "frame": 11589,
    "pts": 11600589.0,
    "pts_time": 386.686,
    "score": 0.71677
  },
  {
    "frame": 11846,
    "pts": 11857846.0,
    "pts_time": 395.262,
    "score": 0.809323
  },
  {
    "frame": 12113,
    "pts": 12125113.0,
    "pts_time": 404.17,
    "score": 0.584188
  },
  {
    "frame": 12138,
    "pts": 12150138.0,
    "pts_time": 405.005,
    "score": 0.268689
  },
  {
    "frame": 12304,
    "pts": 12316304.0,
    "pts_time": 410.543,
    "score": 0.492021
  },
  {
    "frame": 12538,
    "pts": 12550538.0,
    "pts_time": 418.351,
    "score": 0.54976
  },
  {
    "frame": 12670,
    "pts": 12682670.0,
    "pts_time": 422.756,
    "score": 0.508811
  },
  {
    "frame": 12952,
    "pts": 12964952.0,
    "pts_time": 432.165,
    "score": 0.310122
  },
  {
    "frame": 13381,
    "pts": 13394381.0,
    "pts_time": 446.479,
    "score": 0.214168
  },
  {
    "frame": 13443,
    "pts": 13456443.0,
    "pts_time": 448.548,
    "score": 0.427923
  },
  {
    "frame": 13473,
    "pts": 13486473.0,
    "pts_time": 449.549,
    "score": 0.298011
  },
  {
    "frame": 13569,
    "pts": 13582569.0,
    "pts_time": 452.752,
    "score": 0.548563
  },
  {
    "frame": 13969,
    "pts": 13982969.0,
    "pts_time": 466.099,
    "score": 0.438783
  },
  {
    "frame": 14217,
    "pts": 14231217.0,
    "pts_time": 474.374,
    "score": 0.594567
  },
  {
    "frame": 14643,
    "pts": 14657643.0,
    "pts_time": 488.588,
    "score": 0.486687
  },
  {
    "frame": 14769,
    "pts": 14783769.0,
    "pts_time": 492.792,
    "score": 0.506625
  },
  {
    "frame": 14787,
    "pts": 14801787.0,
    "pts_time": 493.393,
    "score": 0.24703
  },
  {
    "frame": 14788,
    "pts": 14802788.0,
    "pts_time": 493.426,
    "score": 0.214788
  },
  {
    "frame": 14824,
    "pts": 14838824.0,
    "pts_time": 494.627,
    "score": 0.215574
  },
  {
    "frame": 14831,
    "pts": 14845831.0,
    "pts_time": 494.861,
    "score": 0.229642
  },
  {
    "frame": 14833,
    "pts": 14847833.0,
    "pts_time": 494.928,
    "score": 0.238883
  },
  {
    "frame": 14834,
    "pts": 14848834.0,
    "pts_time": 494.961,
    "score": 0.286537
  },
  {
    "frame": 14863,
    "pts": 14877863.0,
    "pts_time": 495.929,
    "score": 0.2452
  },
  {
    "frame": 14881,
    "pts": 14895881.0,
    "pts_time": 496.529,
    "score": 0.301377
  },
  {
    "frame": 14897,
    "pts": 14911897.0,
    "pts_time": 497.063,
    "score": 0.680564
  },
  {
    "frame": 14902,
    "pts": 14916902.0,
    "pts_time": 497.23,
    "score": 0.208625
  },
  {
    "frame": 14947,
    "pts": 14961947.0,
    "pts_time": 498.732,
    "score": 0.205086
  },
  {
    "frame": 14948,
    "pts": 14962948.0,
    "pts_time": 498.765,
    "score": 0.229867
  },
  {
    "frame": 14949,
    "pts": 14963949.0,
    "pts_time": 498.798,
    "score": 0.31324
  },
  {
    "frame": 14960,
    "pts": 14974960.0,
    "pts_time": 499.165,
    "score": 0.265182
  },
  {
    "frame": 14962,
    "pts": 14976962.0,
    "pts_time": 499.232,
    "score": 0.253418
  },
  {
    "frame": 15162,
    "pts": 15177162.0,
    "pts_time": 505.905,
    "score": 0.478896
  },
  {
    "frame": 15730,
    "pts": 15745730.0,
    "pts_time": 524.858,
    "score": 0.538776
  },
  {
    "frame": 15987,
    "pts": 16002987.0,
    "pts_time": 533.433,
    "score": 0.47499
  },
  {
    "frame": 16330,
    "pts": 16346330.0,
    "pts_time": 544.878,
    "score": 0.408107
  },
  {
    "frame": 16817,
    "pts": 16833817.0,
    "pts_time": 561.127,
    "score": 0.509404
  },
  {
    "frame": 17142,
    "pts": 17159142.0,
    "pts_time": 571.971,
    "score": 0.575694
  },
  {
    "frame": 17143,
    "pts": 17160143.0,
    "pts_time": 572.005,
    "score": 0.222939
  },
  {
    "frame": 17274,
    "pts": 17291274.0,
    "pts_time": 576.376,
    "score": 0.625548
  },
  {
    "frame": 17285,
    "pts": 17302285.0,
    "pts_time": 576.743,
    "score": 0.280883
  },
  {
    "frame": 17471,
    "pts": 17488471.0,
    "pts_time": 582.949,
    "score": 0.703897
  },
  {
    "frame": 17472,
    "pts": 17489472.0,
    "pts_time": 582.982,
    "score": 0.301023
  },
  {
    "frame": 17475,
    "pts": 17492475.0,
    "pts_time": 583.082,
    "score": 0.379608
  },
  {
    "frame": 17480,
    "pts": 17497480.0,
    "pts_time": 583.249,
    "score": 0.355094
  },
  {
    "frame": 17485,
    "pts": 17502485.0,
    "pts_time": 583.416,
    "score": 0.339815
  },
  {
    "frame": 17490,
    "pts": 17507490.0,
    "pts_time": 583.583,
    "score": 0.387344
  },
  {
    "frame": 17495,
    "pts": 17512495.0,
    "pts_time": 583.75,
    "score": 0.362568
  },
  {
    "frame": 17500,
    "pts": 17517500.0,
    "pts_time": 583.917,
    "score": 0.31908
  },
  {
    "frame": 17505,
    "pts": 17522505.0,
    "pts_time": 584.084,
    "score": 0.31194
  },
  {
    "frame": 17510,
    "pts": 17527510.0,
    "pts_time": 584.25,
    "score": 0.218737
  },
  {
    "frame": 17571,
    "pts": 17588571.0,
    "pts_time": 586.286,
    "score": 0.200037
  },
  {
    "frame": 17753,
    "pts": 17770753.0,
    "pts_time": 592.358,
    "score": 0.673836
  },
  {
    "frame": 17900,
    "pts": 17917900.0,
    "pts_time": 597.263,
    "score": 0.759129
  },
  {
    "frame": 18044,
    "pts": 18062044.0,
    "pts_time": 602.068,
    "score": 0.497018
  },
  {
    "frame": 18190,
    "pts": 18208190.0,
    "pts_time": 606.94,
    "score": 0.524534
  },
  {
    "frame": 18729,
    "pts": 18747729.0,
    "pts_time": 624.924,
    "score": 0.776622
  },
  {
    "frame": 18913,
    "pts": 18931913.0,
    "pts_time": 631.064,
    "score": 0.560698
  },
  {
    "frame": 19124,
    "pts": 19143124.0,
    "pts_time": 638.104,
    "score": 0.487141
  },
  {
    "frame": 19246,
    "pts": 19265246.0,
    "pts_time": 642.175,
    "score": 0.24656
  },
  {
    "frame": 19265,
    "pts": 19284265.0,
    "pts_time": 642.809,
    "score": 0.467253
  },
  {
    "frame": 19467,
    "pts": 19486467.0,
    "pts_time": 649.549,
    "score": 0.57337
  },
  {
    "frame": 19640,
    "pts": 19659640.0,
    "pts_time": 655.321,
    "score": 0.28915
  },
  {
    "frame": 19641,
    "pts": 19660641.0,
    "pts_time": 655.355,
    "score": 0.229494
  },
  {
    "frame": 19644,
    "pts": 19663644.0,
    "pts_time": 655.455,
    "score": 1.0
  },
  {
    "frame": 19645,
    "pts": 19664645.0,
    "pts_time": 655.488,
    "score": 0.568145
  },
  {
    "frame": 19648,
    "pts": 19667648.0,
    "pts_time": 655.588,
    "score": 0.299329
  },
  {
    "frame": 19649,
    "pts": 19668649.0,
    "pts_time": 655.622,
    "score": 0.209196
  },
  {
    "frame": 19711,
    "pts": 19730711.0,
    "pts_time": 657.69,
    "score": 0.372899
  },
  {
    "frame": 19790,
    "pts": 19809790.0,
    "pts_time": 660.326,
    "score": 0.489022
  },
  {
    "frame": 19792,
    "pts": 19811792.0,
    "pts_time": 660.393,
    "score": 0.274326
  },
  {
    "frame": 19820,
    "pts": 19839820.0,
    "pts_time": 661.327,
    "score": 0.334118
  },
  {
    "frame": 19979,
    "pts": 19998979.0,
    "pts_time": 666.633,
    "score": 0.592633
  },
  {
    "frame": 20192,
    "pts": 20212192.0,
    "pts_time": 673.74,
    "score": 0.702772
  },
  {
    "frame": 20592,
    "pts": 20612592.0,
    "pts_time": 687.086,
    "score": 0.452874
  },
  {
    "frame": 20829,
    "pts": 20849829.0,
    "pts_time": 694.994,
    "score": 0.423847
  },
  {
    "frame": 21019,
    "pts": 21040019.0,
    "pts_time": 701.334,
    "score": 0.648474
  },
  {
    "frame": 21283,
    "pts": 21304283.0,
    "pts_time": 710.143,
    "score": 0.536328
  },
  {
    "frame": 21490,
    "pts": 21511490.0,
    "pts_time": 717.05,
    "score": 0.660244
  },
  {
    "frame": 21679,
    "pts": 21700679.0,
    "pts_time": 723.356,
    "score": 0.288061
  },
  {
    "frame": 21987,
    "pts": 22008987.0,
    "pts_time": 733.633,
    "score": 0.504187
  },
  {
    "frame": 22258,
    "pts": 22280258.0,
    "pts_time": 742.675,
    "score": 0.572077
  },
  {
    "frame": 22462,
    "pts": 22484462.0,
    "pts_time": 749.482,
    "score": 0.563969
  },
  {
    "frame": 22627,
    "pts": 22649627.0,
    "pts_time": 754.988,
    "score": 0.543773
  },
  {
    "frame": 22628,
    "pts": 22650628.0,
    "pts_time": 755.021,
    "score": 0.207243
  },
  {
    "frame": 22726,
    "pts": 22748726.0,
    "pts_time": 758.291,
    "score": 0.438102
  },
  {
    "frame": 22728,
    "pts": 22750728.0,
    "pts_time": 758.358,
    "score": 0.403582
  },
  {
    "frame": 22941,
    "pts": 22963941.0,
    "pts_time": 765.465,
    "score": 0.263476
  },
  {
    "frame": 23452,
    "pts": 23475452.0,
    "pts_time": 782.515,
    "score": 0.519419
  },
  {
    "frame": 23667,
    "pts": 23690667.0,
    "pts_time": 789.689,
    "score": 0.249068
  },
  {
    "frame": 23866,
    "pts": 23889866.0,
    "pts_time": 796.329,
    "score": 0.520077
  },
  {
    "frame": 24114,
    "pts": 24138114.0,
    "pts_time": 804.604,
    "score": 0.355214
  },
  {
    "frame": 24393,
    "pts": 24417393.0,
    "pts_time": 813.913,
    "score": 0.687118
  },
  {
    "frame": 24644,
    "pts": 24668644.0,
    "pts_time": 822.288,
    "score": 0.370411
  },
  {
    "frame": 24863,
    "pts": 24887863.0,
    "pts_time": 829.595,
    "score": 0.521838
  },
  {
    "frame": 25077,
    "pts": 25102077.0,
    "pts_time": 836.736,
    "score": 0.572087
  },
  {
    "frame": 25223,
    "pts": 25248223.0,
    "pts_time": 841.607,
    "score": 0.296767
  },
  {
    "frame": 25574,
    "pts": 25599574.0,
    "pts_time": 853.319,
    "score": 0.323622
  },
  {
    "frame": 25787,
    "pts": 25812787.0,
    "pts_time": 860.426,
    "score": 0.566157
  },
  {
    "frame": 25788,
    "pts": 25813788.0,
    "pts_time": 860.46,
    "score": 0.420101
  },
  {
    "frame": 25793,
    "pts": 25818793.0,
    "pts_time": 860.626,
    "score": 0.371774
  },
  {
    "frame": 25795,
    "pts": 25820795.0,
    "pts_time": 860.693,
    "score": 0.233067
  },
  {
    "frame": 25796,
    "pts": 25821796.0,
    "pts_time": 860.727,
    "score": 0.95227
  },
  {
    "frame": 25797,
    "pts": 25822797.0,
    "pts_time": 860.76,
    "score": 0.208855
  },
  {
    "frame": 25800,
    "pts": 25825800.0,
    "pts_time": 860.86,
    "score": 0.707292
  },
  {
    "frame": 25805,
    "pts": 25830805.0,
    "pts_time": 861.027,
    "score": 0.2733
  },
  {
    "frame": 25812,
    "pts": 25837812.0,
    "pts_time": 861.26,
    "score": 0.470948
  },
  {
    "frame": 25824,
    "pts": 25849824.0,
    "pts_time": 861.661,
    "score": 0.523941
  },
  {
    "frame": 25825,
    "pts": 25850825.0,
    "pts_time": 861.694,
    "score": 0.313366
  },
  {
    "frame": 25828,
    "pts": 25853828.0,
    "pts_time": 861.794,
    "score": 0.450126
  },
  {
    "frame": 25842,
    "pts": 25867842.0,
    "pts_time": 862.261,
    "score": 0.203803
  },
  {
    "frame": 25864,
    "pts": 25889864.0,
    "pts_time": 862.995,
    "score": 0.459083
  },
  {
    "frame": 26107,
    "pts": 26133107.0,
    "pts_time": 871.104,
    "score": 0.312571
  },
  {
    "frame": 26224,
    "pts": 26250224.0,
    "pts_time": 875.007,
    "score": 0.439528
  },
  {
    "frame": 26398,
    "pts": 26424398.0,
    "pts_time": 880.813,
    "score": 0.429539
  },
  {
    "frame": 26532,
    "pts": 26558532.0,
    "pts_time": 885.284,
    "score": 0.704897
  },
  {
    "frame": 26866,
    "pts": 26892866.0,
    "pts_time": 896.429,
    "score": 0.47056
  },
  {
    "frame": 26960,
    "pts": 26986960.0,
    "pts_time": 899.565,
    "score": 0.245038
  },
  {
    "frame": 27103,
    "pts": 27130103.0,
    "pts_time": 904.337,
    "score": 0.47154
  },
  {
    "frame": 27205,
    "pts": 27232205.0,
    "pts_time": 907.74,
    "score": 0.286104
  },
  {
    "frame": 27304,
    "pts": 27331304.0,
    "pts_time": 911.043,
    "score": 0.451852
  },
  {
    "frame": 27513,
    "pts": 27540513.0,
    "pts_time": 918.017,
    "score": 0.702461
  },
  {
    "frame": 27686,
    "pts": 27713686.0,
    "pts_time": 923.79,
    "score": 0.639824
  },
  {
    "frame": 27812,
    "pts": 27839812.0,
    "pts_time": 927.994,
    "score": 0.339452
  },
  {
    "frame": 27956,
    "pts": 27983956.0,
    "pts_time": 932.799,
    "score": 0.484615
  },
  {
    "frame": 28117,
    "pts": 28145117.0,
    "pts_time": 938.171,
    "score": 0.534277
  },
  {
    "frame": 28150,
    "pts": 28178150.0,
    "pts_time": 939.272,
    "score": 0.26254
  },
  {
    "frame": 28216,
    "pts": 28244216.0,
    "pts_time": 941.474,
    "score": 0.239421
  },
  {
    "frame": 28224,
    "pts": 28252224.0,
    "pts_time": 941.741,
    "score": 0.285855
  },
  {
    "frame": 28226,
    "pts": 28254226.0,
    "pts_time": 941.808,
    "score": 0.370943
  },
  {
    "frame": 28375,
    "pts": 28403375.0,
    "pts_time": 946.779,
    "score": 0.309732
  },
  {
    "frame": 28380,
    "pts": 28408380.0,
    "pts_time": 946.946,
    "score": 0.221425
  },
  {
    "frame": 28395,
    "pts": 28423395.0,
    "pts_time": 947.447,
    "score": 0.361899
  },
  {
    "frame": 28400,
    "pts": 28428400.0,
    "pts_time": 947.613,
    "score": 0.295399
  },
  {
    "frame": 28405,
    "pts": 28433405.0,
    "pts_time": 947.78,
    "score": 0.261788
  },
  {
    "frame": 28410,
    "pts": 28438410.0,
    "pts_time": 947.947,
    "score": 0.229328
  },
  {
    "frame": 28426,
    "pts": 28454426.0,
    "pts_time": 948.481,
    "score": 0.302497
  },
  {
    "frame": 28706,
    "pts": 28734706.0,
    "pts_time": 957.824,
    "score": 0.43337
  },
  {
    "frame": 28808,
    "pts": 28836808.0,
    "pts_time": 961.227,
    "score": 0.614554
  },
  {
    "frame": 28948,
    "pts": 28976948.0,
    "pts_time": 965.898,
    "score": 0.207961
  },
  {
    "frame": 28949,
    "pts": 28977949.0,
    "pts_time": 965.932,
    "score": 0.432371
  },
  {
    "frame": 28952,
    "pts": 28980952.0,
    "pts_time": 966.032,
    "score": 0.859483
  },
  {
    "frame": 28953,
    "pts": 28981953.0,
    "pts_time": 966.065,
    "score": 0.201921
  },
  {
    "frame": 28956,
    "pts": 28984956.0,
    "pts_time": 966.165,
    "score": 0.503601
  },
  {
    "frame": 28963,
    "pts": 28991963.0,
    "pts_time": 966.399,
    "score": 0.223144
  },
  {
    "frame": 28990,
    "pts": 29018990.0,
    "pts_time": 967.3,
    "score": 0.206797
  },
  {
    "frame": 29162,
    "pts": 29191162.0,
    "pts_time": 973.039,
    "score": 0.544624
  },
  {
    "frame": 29415,
    "pts": 29444415.0,
    "pts_time": 981.481,
    "score": 0.741251
  },
  {
    "frame": 29757,
    "pts": 29786757.0,
    "pts_time": 992.892,
    "score": 0.599107
  },
  {
    "frame": 30096,
    "pts": 30126096.0,
    "pts_time": 1004.2,
    "score": 0.551026
  },
  {
    "frame": 30097,
    "pts": 30127097.0,
    "pts_time": 1004.24,
    "score": 0.257668
  },
  {
    "frame": 30392,
    "pts": 30422392.0,
    "pts_time": 1014.08,
    "score": 0.38555
  },
  {
    "frame": 30500,
    "pts": 30530500.0,
    "pts_time": 1017.68,
    "score": 0.367148
  },
  {
    "frame": 30580,
    "pts": 30610580.0,
    "pts_time": 1020.35,
    "score": 0.396938
  },
  {
    "frame": 30682,
    "pts": 30712682.0,
    "pts_time": 1023.76,
    "score": 0.40457
  },
  {
    "frame": 30856,
    "pts": 30886856.0,
    "pts_time": 1029.56,
    "score": 0.384816
  },
  {
    "frame": 30936,
    "pts": 30966936.0,
    "pts_time": 1032.23,
    "score": 0.368596
  },
  {
    "frame": 31083,
    "pts": 31114083.0,
    "pts_time": 1037.14,
    "score": 0.364796
  },
  {
    "frame": 31251,
    "pts": 31282251.0,
    "pts_time": 1042.74,
    "score": 0.390217
  },
  {
    "frame": 31329,
    "pts": 31360329.0,
    "pts_time": 1045.34,
    "score": 0.230401
  },
  {
    "frame": 31422,
    "pts": 31453422.0,
    "pts_time": 1048.45,
    "score": 0.452194
  },
  {
    "frame": 31803,
    "pts": 31834803.0,
    "pts_time": 1061.16,
    "score": 0.250123
  },
  {
    "frame": 32015,
    "pts": 32047015.0,
    "pts_time": 1068.23,
    "score": 0.282065
  },
  {
    "frame": 32253,
    "pts": 32285253.0,
    "pts_time": 1076.18,
    "score": 0.401177
  }
]